<?xml version="1.0" encoding="UTF-8"?><svg id="Capa_1" xmlns="http://www.w3.org/2000/svg" xmlns:xlink="http://www.w3.org/1999/xlink" viewBox="0 0 1400 1400"><defs><linearGradient id="Degradado_sin_nombre_48" x1="882.37" y1="806.12" x2="882.37" y2="1078.01" gradientTransform="translate(0 -58.02)" gradientUnits="userSpaceOnUse"><stop offset="0" stop-color="#4155e2"/><stop offset="1" stop-color="#6645ca"/></linearGradient></defs><path d="M374.81,714.06h-115.95l107.5,322.79-23.55,11.93-255.06-361.41h134.09l-108.12-324.67,23.85-11.49,237.24,362.85ZM138.37,714.06l174.28,245.99-81.92-245.99h-92.36ZM249.97,687.38h74.12l-152.11-234.18,77.99,234.18Z" fill="#fff"/><path d="M452.5,888.38c0-72.67,56.76-131.6,126.9-131.6,74.12,0,109.55,56.76,118.23,95.81l-62.91,2.89c-5.06-18.08-23.14-40.86-55.32-40.86-35.43,0-65.44,30.37-65.44,73.76s30.01,73.75,65.44,73.75c31.82,0,49.89-22.42,56.4-40.49l62.91,2.89c-7.95,37.24-44.11,95.45-119.31,95.45-70.14,0-126.9-58.93-126.9-131.6Z" fill="#fff"/><path d="M729.81,1014.92v-253.08h57.12v253.08h-57.12Z" fill="#fff"/><path d="M824.53,778.84c0-17.35,13.74-30.73,31.82-30.73s31.45,13.38,31.45,30.73-13.74,30.73-31.45,30.73-31.82-13.74-31.82-30.73ZM827.78,1014.92v-184.39h57.12v184.39h-57.12Z" fill="#fff"/><path d="M915.63,922.73c0-52.79,43.39-97.25,96.53-97.25s85.32,43.75,91.11,74.84l-56.4,2.89c-2.53-8.68-14.1-26.03-34.71-26.03-22.42,0-39.41,19.16-39.41,45.55s16.99,45.55,39.41,45.55c20.61,0,32.18-17.35,34.71-26.03l56.4,2.89c-5.79,31.09-35.43,74.84-91.11,74.84s-96.53-44.47-96.53-97.26Z" fill="#fff"/><path d="M1312.24,1014.92h-67.97l-53.51-80.99v80.99h-57.12v-253.08h57.12v142.81l49.89-74.12h63.63l-60.02,85.69,67.97,98.7Z" fill="#fff"/><path d="M452.5,888.38c0-72.67,56.76-131.6,126.9-131.6,74.12,0,109.55,56.76,118.23,95.81l-62.91,2.89c-5.06-18.08-23.14-40.86-55.32-40.86-35.43,0-65.44,30.37-65.44,73.76s30.01,73.75,65.44,73.75c31.82,0,49.89-22.42,56.4-40.49l62.91,2.89c-7.95,37.24-44.11,95.45-119.31,95.45-70.14,0-126.9-58.93-126.9-131.6Z" fill="url(#Degradado_sin_nombre_48)"/><path d="M729.81,1014.92v-253.08h57.12v253.08h-57.12Z" fill="url(#Degradado_sin_nombre_48)"/><path d="M824.53,778.84c0-17.35,13.74-30.73,31.82-30.73s31.45,13.38,31.45,30.73-13.74,30.73-31.45,30.73-31.82-13.74-31.82-30.73ZM827.78,1014.92v-184.39h57.12v184.39h-57.12Z" fill="url(#Degradado_sin_nombre_48)"/><path d="M915.63,922.73c0-52.79,43.39-97.25,96.53-97.25s85.32,43.75,91.11,74.84l-56.4,2.89c-2.53-8.68-14.1-26.03-34.71-26.03-22.42,0-39.41,19.16-39.41,45.55s16.99,45.55,39.41,45.55c20.61,0,32.18-17.35,34.71-26.03l56.4,2.89c-5.79,31.09-35.43,74.84-91.11,74.84s-96.53-44.47-96.53-97.26Z" fill="url(#Degradado_sin_nombre_48)"/><path d="M1312.24,1014.92h-67.97l-53.51-80.99v80.99h-57.12v-253.08h57.12v142.81l49.89-74.12h63.63l-60.02,85.69,67.97,98.7Z" fill="url(#Degradado_sin_nombre_48)"/><path d="M451.11,580.79h41.94c2.53,26.03,19.88,44.11,50.98,44.11s45.19-14.82,45.19-33.26c0-56.04-132.32-29.65-132.32-119.67,0-40.13,31.09-70.86,83.88-70.86s84.6,35.07,86.77,79.9h-41.94c-1.45-24.59-18.08-41.94-44.83-41.94s-41.94,14.46-41.94,33.62c0,54.95,132.32,26.75,132.32,117.86,0,41.22-31.09,72.31-87.49,72.31s-90.39-34.71-92.56-82.07Z" fill="#fff"/><path d="M860.75,475.58h39.41l-60.38,182.94h-32.9l-37.24-116.06-36.52,116.06h-32.9l-60.38-182.94h40.85l37.96,123.65,39.41-123.65h24.95l39.41,124.37,38.32-124.37Z" fill="#fff"/><path d="M920.39,426.77c0-13.38,10.48-23.5,23.5-23.5s23.14,10.12,23.14,23.5-10.12,23.14-23.14,23.14-23.5-10.12-23.5-23.14ZM924.01,658.52v-182.94h39.77v182.94h-39.77Z" fill="#fff"/><path d="M1058.87,467.99v7.59h40.85v35.79h-39.77v147.15h-39.41v-147.15h-24.95v-35.79h24.95v-11.21c0-39.77,24.22-63.27,57.49-63.27,9.76,0,16.99,1.81,21.69,3.62v35.79c-3.62-1.45-7.95-2.17-13.38-2.17-16.99,0-27.48,9.4-27.48,29.65Z" fill="#fff"/><path d="M1144.91,599.23v-87.85h-30.01v-33.62h13.02c14.46,0,22.05-7.59,22.05-21.69v-27.48h34.35v47h39.77v35.79h-39.77v84.6c0,20.25,10.85,29.65,27.12,29.65,4.7,0,9.04-.72,12.65-2.53v36.15c-4.7,1.81-11.93,3.62-21.69,3.62-33.26,0-57.48-23.5-57.48-63.63Z" fill="#fff"/></svg>